<svg height="512pt" viewBox="0 -22 512 512" width="512pt" xmlns="http://www.w3.org/2000/svg"><path d="m474.078125 114.554688h-169.558594v60.839843h169.558594c16.800781 0 30.421875-13.617187 30.421875-30.417969 0-16.800781-13.621094-30.421874-30.421875-30.421874zm0 0" fill="#ffbe73"/><path d="m71.347656 144.976562v291.394532c0 15.34375 16.550782 24.984375 29.894532 17.417968l43.058593-24.410156 38.109375 23.757813c17.285156 10.773437 39.195313 10.773437 56.480469 0l38.109375-23.757813 43.054688 24.410156c13.347656 7.566407 29.894531-2.074218 29.894531-17.417968v-291.394532zm0 0" fill="#59c2e8"/><path d="m71.347656 359.722656c27.136719-10.324218 71.109375-20.359375 139.300782-20.046875 75.5625.34375 117.097656-10.445312 139.300781-20.394531v-174.304688h-278.601563zm0 0" fill="#00aede"/><path d="m359.132812 7.5h-194.28125v274.949219h194.28125c51.640626 0 93.503907-61.550781 93.503907-137.472657 0-75.925781-41.863281-137.476562-93.503907-137.476562zm0 0" fill="#91d4f2"/><path d="m258.359375 144.976562c0-75.925781-41.863281-137.476562-93.507813-137.476562-51.640624 0-93.503906 61.550781-93.503906 137.476562 0 75.921876 41.863282 137.472657 93.503906 137.472657 51.644532 0 93.507813-61.550781 93.507813-137.472657zm0 0" fill="#c2eafb"/><path d="m200.09375 144.976562c0-32.964843-15.777344-59.691406-35.242188-59.691406-19.460937 0-35.238281 26.726563-35.238281 59.691406 0 32.964844 15.777344 59.6875 35.238281 59.6875 19.464844 0 35.242188-26.722656 35.242188-59.6875zm0 0" fill="#889cb0"/><path d="m200.09375 144.976562c0-11.117187-1.789062-21.511718-4.914062-30.421874h-157.257813c-16.800781 0-30.421875 13.621093-30.421875 30.421874 0 16.800782 13.621094 30.417969 30.421875 30.417969h157.257813c3.125-8.910156 4.914062-19.304687 4.914062-30.417969zm0 0" fill="#ffbe73"/><path d="m373.65625 160.671875c0-10.578125-6.734375-19.15625-15.035156-19.15625-8.304688 0-15.035156 8.578125-15.035156 19.15625s6.730468 19.15625 15.035156 19.15625c8.300781 0 15.035156-8.578125 15.035156-19.15625zm0 0" fill="#454545"/><path d="m420.425781 165.628906c4.144531 0 7.5-3.359375 7.5-7.5v-12.453125c0-4.140625-3.355469-7.5-7.5-7.5s-7.5 3.359375-7.5 7.5v12.453125c0 4.140625 3.355469 7.5 7.5 7.5zm0 0"/><path d="m296.8125 138.175781c-4.140625 0-7.5 3.359375-7.5 7.5v12.453125c0 4.140625 3.359375 7.5 7.5 7.5 4.144531 0 7.5-3.359375 7.5-7.5v-12.453125c0-4.140625-3.355469-7.5-7.5-7.5zm0 0"/><path d="m358.617188 134.015625c-12.425782 0-22.53125 11.957031-22.53125 26.65625s10.105468 26.65625 22.53125 26.65625c12.429687 0 22.535156-11.957031 22.535156-26.65625s-10.105469-26.65625-22.535156-26.65625zm0 38.3125c-3.5625 0-7.53125-4.789063-7.53125-11.65625s3.96875-11.65625 7.53125-11.65625c3.566406 0 7.535156 4.789063 7.535156 11.65625s-3.96875 11.65625-7.535156 11.65625zm0 0"/><path d="m474.078125 107.054688h-17.398437c-4.425782-23.742188-13.015626-45.550782-25.226563-63.507813-19.101563-28.082031-44.785156-43.546875-72.320313-43.546875h-194.277343c-23.59375 0-46.507813 11.796875-64.515625 33.21875-16.015625 19.050781-27.617188 45.082031-33.015625 73.835938h-29.402344c-20.910156 0-37.921875 17.011718-37.921875 37.921874 0 20.90625 17.011719 37.917969 37.921875 37.917969h25.925781v253.476563c0 9.90625 5.109375 18.796875 13.667969 23.78125 8.5625 4.988281 18.8125 5.046875 27.429687.160156l39.171876-22.210938 34.324218 21.394532c9.785156 6.101562 20.996094 9.148437 32.207032 9.148437 11.214843 0 22.425781-3.046875 32.210937-9.148437l34.324219-21.394532 39.171875 22.210938c8.617187 4.886719 18.871093 4.824219 27.429687-.160156s13.667969-13.875 13.667969-23.78125v-121.871094c0-4.144531-3.359375-7.5-7.5-7.5-4.144531 0-7.5 3.355469-7.5 7.5v121.871094c0 4.507812-2.324219 8.554687-6.21875 10.820312-3.894531 2.269532-8.558594 2.292969-12.476563.074219l-43.058593-24.414063c-2.386719-1.355468-5.332031-1.292968-7.667969.160157l-38.105469 23.757812c-14.746093 9.191407-33.804687 9.191407-48.546875 0l-38.109375-23.757812c-2.335937-1.453125-5.277343-1.515625-7.667969-.160157l-43.054687 24.414063c-3.921875 2.21875-8.585937 2.195313-12.480469-.074219-3.894531-2.269531-6.21875-6.3125-6.21875-10.820312v-215.222656c5.738282 13.371093 12.96875 25.425781 21.441406 35.523437 18.019532 21.460937 40.945313 33.277344 64.566407 33.277344h194.277343c27.535157 0 53.21875-15.464844 72.320313-43.546875 12.210937-17.960938 20.800781-39.765625 25.226563-63.507813h17.398437c20.910156 0 37.921875-17.011719 37.921875-37.921875 0-20.90625-17.011719-37.917968-37.921875-37.917968zm-459.078125 37.921874c0-12.640624 10.28125-22.921874 22.921875-22.921874h151.804687c6.386719 20.65625 1.804688 39.09375 0 45.839843h-151.804687c-12.640625 0-22.921875-10.28125-22.921875-22.917969zm131.105469-37.921874c5.152343-8.992188 11.894531-14.269532 18.75-14.269532 6.667969 0 13.570312 5.199219 18.820312 14.269532zm37.570312 75.839843c-5.25 9.070313-12.152343 14.269531-18.820312 14.269531-6.863281 0-13.605469-5.269531-18.753907-14.269531zm175.457031 92.054688h-149.25c10.027344-7.140625 19.246094-16.71875 27.289063-28.546875 18.5-27.195313 28.6875-63.21875 28.6875-101.429688 0-26.503906-4.992187-52.414062-14.433594-74.9375-1.605469-3.816406-6-5.613281-9.816406-4.015625-3.820313 1.601563-5.621094 5.996094-4.019531 9.816407 8.679687 20.699218 13.269531 44.609374 13.269531 69.136718 0 71.667969-38.582031 129.976563-86.003906 129.976563-19.386719 0-37.742188-9.65625-53.078125-27.921875-13.851563-16.5-24.042969-39.027344-29.15625-64.132813h46.777344c7.84375 18.433594 20.832031 29.269531 35.457031 29.269531 23.964843 0 42.738281-29.515624 42.738281-67.191406 0-37.675781-18.773438-67.1875-42.738281-67.1875-14.617188 0-27.609375 10.839844-35.457031 29.269532h-46.777344c5.121094-25.132813 15.328125-47.683594 29.199218-64.183594 15.328126-18.234375 33.667969-27.871094 53.03125-27.871094 20.980469 0 41.242188 11.703125 57.054688 32.960938 2.476562 3.320312 7.171875 4.011718 10.496094 1.539062 3.320312-2.472656 4.011718-7.171875 1.539062-10.492188-7.257812-9.753906-15.390625-17.800781-24.136718-24.007812h149.328124c47.421876 0 86.003907 58.308594 86.003907 129.976562 0 71.667969-38.582031 129.972657-86.003907 129.972657zm114.945313-107.054688h-15.1875c2.417969-19.445312.820313-38.328125 0-45.839843h15.1875c12.640625 0 22.921875 10.28125 22.921875 22.921874 0 12.636719-10.28125 22.917969-22.921875 22.917969zm0 0"/></svg>